<?xml version="1.0" standalone="yes"?>
<svg xmlns="http://www.w3.org/2000/svg" width="200" height="200">
<path style="fill:#ffffff; stroke:none;" d="M0 0L0 200L200 200L200 0L0 0z"/>
<path style="fill:#000000; stroke:none;" d="M37 87C33.0787 95.2545 30.2261 103.763 30.0147 113C29.8675 119.429 30.9749 125.92 33.0795 132C52.6644 188.583 146.615 189.228 168.188 134C170.697 127.577 171.998 120.899 171.998 114C171.998 104.376 169.087 95.6031 165 87C181.497 82.1 186.967 60.1887 176.606 47.0039C171.958 41.0885 164.57 37.2349 157 37.0548C153.698 36.9762 149.313 38.9606 146.209 37.6721C142.179 35.9986 139.671 30.2278 135.999 27.6489C125.094 19.9892 108.797 22.1916 101 33C91.2963 23.5245 77.1022 19.1526 65.0008 27.6489C61.3757 30.194 58.7993 36.0728 54.7909 37.6474C51.9602 38.7593 48.0018 36.9959 45 37.054C36.6232 37.2161 28.4972 41.0952 23.6489 48.0008C14.4053 61.1667 19.9338 83.9089 37 87z"/>
<path style="fill:#edebe7; stroke:none;" d="M58 44C52.4843 41.1819 47.3168 39.2215 41 40.3287C27.6616 42.6667 18.7754 57.1082 23.1049 70C24.6067 74.4715 27.1987 78.5374 31.0154 81.3627C33.4982 83.2004 38.389 84.5058 38.7623 88.1049C39.3349 93.6237 34.3359 101.302 33.439 107C30.8831 123.238 37.6434 140.423 49.0903 151.91C79.549 182.477 144.182 178.629 163.677 137C168.3 127.126 170.331 115.761 168.192 105C167.205 100.033 162.104 92.041 162.993 87.213C163.637 83.7154 169.521 82.0184 171.895 79.787C176.136 75.8009 178.743 69.7907 178.956 64C179.387 52.2531 170.818 41.6419 159 40.1852C153.323 39.4854 148.301 41.2757 143 43C139.463 30.7513 126.558 22.8016 114 27.108C109.635 28.6048 105.39 33.8999 101 34.3843C96.8014 34.8475 91.1823 28.5095 87 27.1049C74.027 22.7481 61.0638 31.2201 58 44z"/>
<path style="fill:#000000; stroke:none;" d="M76 32.5332C54.6037 37.6992 62.9171 70.4582 84 65.4676C105.373 60.4084 97.1142 27.4352 76 32.5332M117 32.5332C95.6037 37.6992 103.917 70.4582 125 65.4676C146.373 60.4083 138.114 27.4352 117 32.5332z"/>
<path style="fill:#ffaec9; stroke:none;" d="M77 35.537C59.5628 39.5626 65.7081 66.4891 83 62.6049C100.607 58.65 94.4144 31.5167 77 35.537M118 35.537C100.563 39.5626 106.708 66.4891 124 62.6049C141.607 58.65 135.414 31.5167 118 35.537z"/>
<path style="fill:#000000; stroke:none;" d="M42 47.5332C20.6037 52.6992 28.9171 85.4583 50 80.4676C71.3727 75.4083 63.1141 42.4352 42 47.5332M151 47.5332C129.604 52.6992 137.917 85.4583 159 80.4676C180.373 75.4083 172.114 42.4352 151 47.5332z"/>
<path style="fill:#ffaec9; stroke:none;" d="M43 50.537C25.5628 54.5626 31.7081 81.4891 49 77.6049C66.6068 73.65 60.4144 46.5167 43 50.537M152 50.537C134.563 54.5626 140.708 81.4891 158 77.6049C175.607 73.65 169.414 46.5167 152 50.537z"/>
<path style="fill:#000000; stroke:none;" d="M96 78.5185C89.8549 79.8513 84.3356 83.6553 80.9946 89.0008C79.3119 91.693 78.7202 95.0544 76.49 97.3912C68.9624 105.278 59.36 108.325 56.1597 120C47.091 153.084 90.3714 165.851 115 160.335C134.902 155.878 154.869 136.529 144.001 115C139.702 106.484 131.63 103.776 125.51 97.3904C123.021 94.7933 122.416 90.9214 120.351 88.0039C114.928 80.3401 105.18 76.5274 96 78.5185z"/>
<path style="fill:#ffaec9; stroke:none;" d="M97 81.4684C91.3727 82.5412 86.1842 85.8904 83.4414 91.0039C81.9514 93.7816 81.5682 97.1362 79.348 99.5046C77.1128 101.889 73.6609 103.065 71 104.905C65.4381 108.752 60.7373 114.4 58.9282 121C50.5664 151.505 91.968 162.215 114 157.547C132.227 153.685 151.735 135.776 141.084 116C138.697 111.568 135.127 107.759 131 104.905C128.383 103.095 124.848 101.932 122.728 99.5046C120.431 96.8749 120.105 92.9165 118.146 90.0039C113.511 83.1128 105.1 79.924 97 81.4684z"/>
</svg>
