<?xml version="1.0" standalone="yes"?>
<svg xmlns="http://www.w3.org/2000/svg" width="200" height="200">
<path style="fill:#ffffff; stroke:none;" d="M0 0L0 200L200 200L200 0L0 0z"/>
<path style="fill:#000000; stroke:none;" d="M37 94C19.2158 117.973 37.7555 150.734 60 163.985C91.759 182.903 139.699 177.762 161.652 146C172.117 130.859 176.705 109.779 165 94C177.451 92.6478 188.18 76.863 177.61 66.4599C168.055 57.0567 158.43 61.109 147.004 58.7215C142.245 57.7271 138.744 53.3086 134.424 51.1744C124.949 46.4937 106.688 46.3765 101 57C92.8848 47.7283 78.4708 45.8997 67.4244 50.7647C62.6992 52.8457 59.0543 57.6645 53.9961 58.7215C42.6259 61.0973 31.5156 56.7238 22.6489 67.26C13.2101 78.4761 24.4525 93.3214 37 94z"/>
<path style="fill:#edebe7; stroke:none;" d="M58 64C48.567 59.9249 38.062 60.0459 29.0401 65.3295C20.4617 70.3533 20.3696 81.0495 27.304 87.5177C30.7806 90.7606 35.6729 92.2338 40 94C23.9564 116.729 38.4369 147.246 60 160.533C97.0399 183.357 157.779 171.156 167.985 124C170.482 112.464 167.324 103.162 162 93C173.666 89.8723 187.164 75.9278 172.907 65.8148C164.17 59.6175 152.785 60.5895 143 63C139.548 54.5473 126.274 48.0509 117.285 50.4699C114.064 51.3369 110.149 52.628 107.17 54.1096C104.814 55.2811 102.866 57.3294 100.025 57.0849C97.5732 56.8739 95.9222 54.9985 93.8302 53.9583C90.8987 52.5007 86.8911 51.3246 83.7145 50.4699C74.6284 48.0253 60.4867 54.9051 58 64z"/>
<path style="fill:#000000; stroke:none;" d="M76.4244 55.7106C73.4703 56.5751 69.8592 57.3245 67.3403 59.1481C60.9017 63.8094 63.0133 72.2771 69.0154 76.1065C73.6031 79.0335 82.8217 78.8834 87.9853 77.5255C95.0183 75.676 99.2616 67.5778 94.7716 61.2639C91.4763 56.63 81.7064 54.165 76.4244 55.7106M117.424 55.7106C114.47 56.5751 110.859 57.3246 108.34 59.1481C101.902 63.8094 104.013 72.2771 110.015 76.1065C114.603 79.0335 123.822 78.8834 128.985 77.5255C136.018 75.676 140.262 67.5778 135.772 61.2639C132.476 56.63 122.706 54.165 117.424 55.7106z"/>
<path style="fill:#ffaec9; stroke:none;" d="M77.0008 57.5185C69.6385 58.9565 62.166 66.4726 69.3943 73.2801C73.145 76.8124 79.1227 77.5531 84 76.5177C91.6451 74.8949 97.3208 66.8561 90.3156 60.5633C87.0144 57.5978 81.2178 56.6948 77.0008 57.5185M118.001 57.5185C110.639 58.9565 103.166 66.4726 110.394 73.2801C114.145 76.8124 120.123 77.5531 125 76.5177C132.645 74.8949 138.321 66.8561 131.316 60.5633C128.014 57.5978 122.218 56.6948 118.001 57.5185z"/>
<path style="fill:#000000; stroke:none;" d="M42 65.5185C39.9295 65.9669 37.8599 66.706 36.0154 67.7539C34.3823 68.6817 32.844 69.8392 31.6528 71.304C22.3102 82.7917 40.3783 91.5233 50 89.4823C52.3712 88.9793 54.8977 88.1721 56.9815 86.9144C63.4728 82.9963 64.5819 74.796 58.7863 69.7091C54.3522 65.8173 47.7192 64.2799 42 65.5185M151 65.5185C148.929 65.9669 146.86 66.706 145.015 67.7539C143.382 68.6817 141.844 69.8392 140.653 71.304C131.31 82.7917 149.378 91.5233 159 89.4823C161.371 88.9793 163.898 88.1721 165.981 86.9144C172.473 82.9963 173.582 74.796 167.786 69.7091C163.352 65.8173 156.719 64.2799 151 65.5185z"/>
<path style="fill:#ffaec9; stroke:none;" d="M43 67.5332C40.9339 67.9854 38.8159 68.8145 37.0548 69.9946C25.0185 78.0598 38.8493 89.7511 49 87.6088C51.0752 87.1708 53.1214 86.2722 54.9452 85.1998C67.4055 77.8734 53.0451 65.3344 43 67.5332M152 67.5332C149.934 67.9854 147.816 68.8145 146.055 69.9946C134.019 78.0598 147.849 89.7511 158 87.6088C160.075 87.1708 162.121 86.2722 163.945 85.1998C176.405 77.8734 162.045 65.3344 152 67.5332z"/>
<path style="fill:#000000; stroke:none;" d="M78 103C59.4116 105.267 48.9409 125.907 59.1335 142C67.7192 155.556 84.5096 161.837 100 161.996C115.721 162.158 133.113 156.585 142.239 142.985C153.081 126.83 143.327 105.358 124 103C121.708 82.4362 80.2917 82.4362 78 103z"/>
<path style="fill:#ffaec9; stroke:none;" d="M97 90.429C92.3472 91.112 86.8757 92.6132 83.7238 96.3897C81.9438 98.5224 81.5406 101.494 79.4352 103.401C77.8118 104.872 75.4867 105.238 73.5748 106.209C67.8053 109.14 61.599 113.745 59.26 120.039C49.1079 147.359 87.3252 161.534 108 158.572C125.423 156.076 153.725 139.969 141.904 118.171C137.533 110.112 129.992 108.933 123.415 103.991C120.938 102.13 120.648 98.6214 118.57 96.3789C113.422 90.8224 104.16 89.378 97 90.429z"/>
</svg>
